# Blender v2.80 (sub 75) OBJ File: ''
# www.blender.org
mtllib director.mtl
o Cube
v 1.000000 1.000000 0.230946
v 1.000000 1.000000 -0.230946
v 1.000000 -1.000000 0.230946
v 1.000000 -1.000000 -0.230946
v -1.000000 1.000000 0.230946
v -1.000000 1.000000 -0.230946
v -1.000000 -1.000000 0.230946
v -1.000000 -1.000000 -0.230946
v -0.019447 1.000000 -0.230946
v -0.019447 -1.000000 0.230946
v -0.019447 -1.000000 -0.230946
v -0.019447 1.000000 0.230946
v -0.019447 2.727023 -0.230946
v -1.000000 1.266038 -0.230946
v 1.000000 1.266038 0.230946
v 1.000000 1.266038 -0.230946
v -1.000000 1.266038 0.230946
v -0.019447 2.727023 0.230946
vt 0.625000 0.000000
vt 0.502431 0.250000
vt 0.502431 0.000000
vt 0.625000 0.377431
vt 0.375000 0.500000
vt 0.375000 0.377431
vt 0.625000 0.500000
vt 0.375000 0.750000
vt 0.625000 0.750000
vt 0.497569 1.000000
vt 0.497569 0.750000
vt 0.375000 0.500000
vt 0.125000 0.750000
vt 0.125000 0.500000
vt 0.625000 0.750000
vt 0.625000 0.750000
vt 0.375000 0.750000
vt 0.375000 1.000000
vt 0.625000 0.250000
vt 0.375000 0.250000
vt 0.375000 0.250000
vt 0.375000 0.000000
vt 0.875000 0.622569
vt 0.625000 0.622569
vt 0.875000 0.500000
vt 0.625000 0.500000
vt 0.497569 0.750000
vt 0.375000 0.000000
vt 0.502431 0.000000
vt 0.625000 0.000000
vt 0.375000 0.500000
vt 0.625000 0.250000
vt 0.625000 1.000000
vt 0.375000 0.750000
vt 0.625000 0.750000
vt 0.875000 0.750000
vt 0.125000 0.500000
vn 0.0000 0.0000 1.0000
vn 0.0000 -1.0000 0.0000
vn -1.0000 0.0000 0.0000
vn 0.0000 0.0000 -1.0000
vn 1.0000 0.0000 0.0000
vn 0.8201 0.5722 0.0000
vn -0.8303 0.5573 0.0000
usemtl Material
s off
f 5/1/1 10/2/1 12/3/1
f 10/4/2 8/5/2 11/6/2
f 7/7/3 6/8/3 8/5/3
f 2/9/4 11/10/4 9/11/4
f 1/12/5 4/13/5 2/14/5
f 9/11/4 16/15/4 2/9/4
f 5/16/3 14/17/3 6/8/3
f 9/11/4 8/18/4 6/8/4
f 3/19/2 11/6/2 4/20/2
f 12/3/1 3/21/1 1/22/1
f 18/23/6 16/15/6 13/24/6
f 17/25/7 13/24/7 14/26/7
f 9/11/4 14/17/4 13/27/4
f 12/3/1 15/28/1 18/29/1
f 12/3/1 17/30/1 5/1/1
f 2/14/5 15/31/5 1/12/5
f 5/1/1 7/32/1 10/2/1
f 10/4/2 7/7/2 8/5/2
f 7/7/3 5/16/3 6/8/3
f 2/9/4 4/33/4 11/10/4
f 1/12/5 3/34/5 4/13/5
f 9/11/4 13/27/4 16/15/4
f 5/16/3 17/35/3 14/17/3
f 9/11/4 11/10/4 8/18/4
f 3/19/2 10/4/2 11/6/2
f 12/3/1 10/2/1 3/21/1
f 18/23/6 15/36/6 16/15/6
f 17/25/7 18/23/7 13/24/7
f 9/11/4 6/8/4 14/17/4
f 12/3/1 1/22/1 15/28/1
f 12/3/1 18/29/1 17/30/1
f 2/14/5 16/37/5 15/31/5
