# Blender v2.80 (sub 75) OBJ File: ''
# www.blender.org
mtllib lamp.mtl
o Cone
v -0.726765 0.000000 -4.429549
v -0.712800 0.141785 -4.429549
v -0.671443 0.278121 -4.429549
v -0.604283 0.403769 -4.429549
v -0.513900 0.513900 -4.429549
v -0.403769 0.604283 -4.429549
v -0.278121 0.671443 -4.429549
v -0.141785 0.712800 -4.429549
v -0.000000 0.726765 -4.429549
v 0.141785 0.712800 -4.429549
v 0.278121 0.671443 -4.429549
v 0.403769 0.604283 -4.429549
v 0.513900 0.513900 -4.429549
v 0.604283 0.403769 -4.429549
v 0.671443 0.278121 -4.429549
v 0.712800 0.141785 -4.429549
v 0.726765 -0.000000 -4.429549
v 0.712800 -0.141785 -4.429549
v 0.671443 -0.278121 -4.429549
v 0.604282 -0.403769 -4.429549
v 0.513900 -0.513901 -4.429549
v 0.403768 -0.604283 -4.429549
v 0.278120 -0.671443 -4.429549
v 0.141784 -0.712800 -4.429549
v -0.000001 -0.726765 -4.429549
v -0.141786 -0.712800 -4.429549
v -0.278122 -0.671443 -4.429549
v -0.403770 -0.604282 -4.429549
v -0.513901 -0.513900 -4.429549
v -0.604283 -0.403768 -4.429549
v -0.671444 -0.278120 -4.429549
v -0.712800 -0.141784 -4.429549
v 0.420351 0.083613 -3.322533
v 0.428586 -0.000000 -3.322533
v 0.395962 0.164013 -3.322533
v 0.303056 -0.303056 -3.322533
v 0.356356 -0.238110 -3.322533
v 0.356357 0.238110 -3.322533
v 0.420351 -0.083613 -3.322533
v 0.395962 -0.164013 -3.322533
v -0.238110 0.356357 -3.322533
v -0.164013 0.395962 -3.322533
v -0.083613 0.420351 -3.322533
v 0.303056 0.303056 -3.322533
v -0.000000 0.428587 -3.322533
v 0.083613 0.420351 -3.322533
v -0.303056 0.303056 -3.322533
v 0.164013 0.395962 -3.322533
v 0.238110 0.356357 -3.322533
v -0.395962 0.164013 -3.322533
v -0.356357 0.238110 -3.322533
v -0.420351 0.083613 -3.322533
v -0.428587 0.000000 -3.322533
v -0.420352 -0.083612 -3.322533
v 0.083613 -0.420351 -3.322533
v -0.000000 -0.428586 -3.322533
v 0.164013 -0.395962 -3.322533
v 0.238110 -0.356357 -3.322533
v -0.303057 -0.303056 -3.322533
v -0.356357 -0.238109 -3.322533
v -0.238110 -0.356356 -3.322533
v -0.083614 -0.420351 -3.322533
v -0.395963 -0.164012 -3.322533
v -0.164013 -0.395962 -3.322533
vt 0.250000 0.490000
vt 0.281881 0.410276
vt 0.296822 0.485388
vt 0.312537 0.400977
vt 0.341844 0.471731
vt 0.383337 0.449553
vt 0.365553 0.365553
vt 0.419706 0.419706
vt 0.449553 0.383337
vt 0.385875 0.340789
vt 0.471731 0.341844
vt 0.410276 0.281881
vt 0.485388 0.296822
vt 0.490000 0.250000
vt 0.413416 0.250000
vt 0.485388 0.203178
vt 0.400977 0.187463
vt 0.471731 0.158156
vt 0.449553 0.116663
vt 0.385875 0.159211
vt 0.419706 0.080294
vt 0.340789 0.114125
vt 0.383337 0.050447
vt 0.341844 0.028269
vt 0.312537 0.099023
vt 0.296822 0.014612
vt 0.250000 0.086584
vt 0.250000 0.010000
vt 0.203178 0.014612
vt 0.218119 0.089724
vt 0.158156 0.028269
vt 0.159211 0.114125
vt 0.116663 0.050447
vt 0.134447 0.134448
vt 0.080294 0.080294
vt 0.050447 0.116663
vt 0.114124 0.159211
vt 0.028269 0.158156
vt 0.099023 0.187464
vt 0.014611 0.203179
vt 0.086584 0.250000
vt 0.010000 0.250000
vt 0.014612 0.296822
vt 0.089724 0.281881
vt 0.028269 0.341844
vt 0.114125 0.340789
vt 0.050447 0.383337
vt 0.080295 0.419706
vt 0.134448 0.365553
vt 0.116663 0.449553
vt 0.187464 0.400977
vt 0.158156 0.471731
vt 0.203179 0.485389
vt 0.218119 0.410276
vt 0.318424 0.638610
vt 0.263610 0.556576
vt 0.181576 0.611389
vt 0.250000 0.413416
vt 0.340789 0.385875
vt 0.400977 0.312537
vt 0.410276 0.218119
vt 0.365553 0.134447
vt 0.281881 0.089724
vt 0.187463 0.099023
vt 0.089724 0.218119
vt 0.099023 0.312537
vt 0.159211 0.385876
vt 0.180235 0.625000
vt 0.181575 0.638610
vt 0.185546 0.651698
vt 0.191992 0.663759
vt 0.200669 0.674331
vt 0.211241 0.683007
vt 0.223302 0.689454
vt 0.236389 0.693424
vt 0.250000 0.694765
vt 0.263610 0.693424
vt 0.276698 0.689454
vt 0.288759 0.683008
vt 0.299331 0.674331
vt 0.308007 0.663759
vt 0.314454 0.651698
vt 0.319765 0.625000
vt 0.318424 0.611390
vt 0.314454 0.598302
vt 0.308007 0.586241
vt 0.299331 0.575669
vt 0.288759 0.566993
vt 0.276698 0.560546
vt 0.250000 0.555235
vt 0.236390 0.556576
vt 0.223302 0.560546
vt 0.211241 0.566992
vt 0.200669 0.575669
vt 0.191993 0.586241
vt 0.185546 0.598302
vn -0.9612 0.0947 0.2589
vn -0.9243 0.2804 0.2589
vn -0.8518 0.4553 0.2589
vn -0.7467 0.6128 0.2589
vn -0.6128 0.7467 0.2589
vn -0.4553 0.8518 0.2589
vn -0.2804 0.9243 0.2589
vn -0.0947 0.9612 0.2589
vn 0.0947 0.9612 0.2589
vn 0.2804 0.9243 0.2589
vn 0.4553 0.8518 0.2589
vn 0.6128 0.7467 0.2589
vn 0.7467 0.6128 0.2589
vn 0.8518 0.4553 0.2589
vn 0.9243 0.2804 0.2589
vn 0.9612 0.0947 0.2589
vn 0.9612 -0.0947 0.2589
vn 0.9243 -0.2804 0.2589
vn 0.8518 -0.4553 0.2589
vn 0.7467 -0.6128 0.2589
vn 0.6128 -0.7467 0.2589
vn 0.4553 -0.8518 0.2589
vn 0.2804 -0.9243 0.2589
vn 0.0947 -0.9612 0.2589
vn -0.0947 -0.9612 0.2589
vn -0.2804 -0.9243 0.2589
vn -0.4553 -0.8518 0.2589
vn -0.6128 -0.7466 0.2589
vn -0.7467 -0.6128 0.2589
vn -0.8518 -0.4553 0.2589
vn -0.9243 -0.2804 0.2589
vn -0.9612 -0.0947 0.2589
vn -0.0000 0.0000 1.0000
vn -0.7466 0.6128 0.2589
vn -0.6128 0.7466 0.2589
vn 0.7466 0.6128 0.2589
vn -0.6128 -0.7467 0.2589
usemtl None
s off
f 1/1/1 52/2/1 2/3/1
f 2/3/2 50/4/2 3/5/2
f 50/4/3 4/6/3 3/5/3
f 4/6/4 47/7/4 5/8/4
f 47/7/5 6/9/5 5/8/5
f 41/10/6 7/11/6 6/9/6
f 7/11/7 43/12/7 8/13/7
f 43/12/8 9/14/8 8/13/8
f 45/15/9 10/16/9 9/14/9
f 10/16/10 48/17/10 11/18/10
f 48/17/11 12/19/11 11/18/11
f 49/20/12 13/21/12 12/19/12
f 13/21/13 38/22/13 14/23/13
f 38/22/14 15/24/14 14/23/14
f 35/25/15 16/26/15 15/24/15
f 16/26/16 34/27/16 17/28/16
f 34/27/17 18/29/17 17/28/17
f 39/30/18 19/31/18 18/29/18
f 19/31/19 37/32/19 20/33/19
f 20/33/20 36/34/20 21/35/20
f 36/34/21 22/36/21 21/35/21
f 58/37/22 23/38/22 22/36/22
f 57/39/23 24/40/23 23/38/23
f 24/40/24 56/41/24 25/42/24
f 56/41/25 26/43/25 25/42/25
f 62/44/26 27/45/26 26/43/26
f 27/45/27 61/46/27 28/47/27
f 61/46/28 29/48/28 28/47/28
f 59/49/29 30/50/29 29/48/29
f 30/50/30 63/51/30 31/52/30
f 63/51/31 32/53/31 31/52/31
f 54/54/32 1/1/32 32/53/32
f 46/55/33 52/56/33 62/57/33
f 1/1/1 53/58/1 52/2/1
f 2/3/2 52/2/2 50/4/2
f 50/4/3 51/59/3 4/6/3
f 4/6/34 51/59/34 47/7/34
f 47/7/35 41/10/35 6/9/35
f 41/10/6 42/60/6 7/11/6
f 7/11/7 42/60/7 43/12/7
f 43/12/8 45/15/8 9/14/8
f 45/15/9 46/61/9 10/16/9
f 10/16/10 46/61/10 48/17/10
f 48/17/11 49/20/11 12/19/11
f 49/20/12 44/62/12 13/21/12
f 13/21/36 44/62/36 38/22/36
f 38/22/14 35/25/14 15/24/14
f 35/25/15 33/63/15 16/26/15
f 16/26/16 33/63/16 34/27/16
f 34/27/17 39/30/17 18/29/17
f 39/30/18 40/64/18 19/31/18
f 19/31/19 40/64/19 37/32/19
f 20/33/20 37/32/20 36/34/20
f 36/34/21 58/37/21 22/36/21
f 58/37/22 57/39/22 23/38/22
f 57/39/23 55/65/23 24/40/23
f 24/40/24 55/65/24 56/41/24
f 56/41/25 62/44/25 26/43/25
f 62/44/26 64/66/26 27/45/26
f 27/45/27 64/66/27 61/46/27
f 61/46/37 59/49/37 29/48/37
f 59/49/29 60/67/29 30/50/29
f 30/50/30 60/67/30 63/51/30
f 63/51/31 54/54/31 32/53/31
f 54/54/32 53/58/32 1/1/32
f 62/57/33 56/68/33 55/69/33
f 55/69/33 57/70/33 58/71/33
f 58/71/33 36/72/33 37/73/33
f 37/73/33 40/74/33 58/71/33
f 40/74/33 39/75/33 58/71/33
f 39/75/33 34/76/33 33/77/33
f 33/77/33 35/78/33 38/79/33
f 38/79/33 44/80/33 49/81/33
f 49/81/33 48/82/33 38/79/33
f 48/82/33 46/55/33 38/79/33
f 46/55/33 45/83/33 43/84/33
f 43/84/33 42/85/33 41/86/33
f 41/86/33 47/87/33 52/56/33
f 47/87/33 51/88/33 52/56/33
f 51/88/33 50/89/33 52/56/33
f 52/56/33 53/90/33 54/91/33
f 54/91/33 63/92/33 52/56/33
f 63/92/33 60/93/33 52/56/33
f 60/93/33 59/94/33 61/95/33
f 61/95/33 64/96/33 62/57/33
f 62/57/33 55/69/33 39/75/33
f 55/69/33 58/71/33 39/75/33
f 39/75/33 33/77/33 46/55/33
f 33/77/33 38/79/33 46/55/33
f 46/55/33 43/84/33 52/56/33
f 43/84/33 41/86/33 52/56/33
f 60/93/33 61/95/33 62/57/33
f 52/56/33 60/93/33 62/57/33
f 62/57/33 39/75/33 46/55/33
o Cylinder
v -0.029971 0.000000 -3.326888
v -0.029971 0.000000 -0.014376
v -0.029395 0.005847 -3.326888
v -0.029395 0.005847 -0.014376
v -0.027689 0.011469 -3.326888
v -0.027689 0.011469 -0.014376
v -0.024920 0.016651 -3.326888
v -0.024920 0.016651 -0.014376
v -0.021193 0.021193 -3.326888
v -0.021193 0.021193 -0.014376
v -0.016651 0.024920 -3.326888
v -0.016651 0.024920 -0.014376
v -0.011469 0.027689 -3.326888
v -0.011469 0.027689 -0.014376
v -0.005847 0.029395 -3.326888
v -0.005847 0.029395 -0.014376
v -0.000000 0.029971 -3.326888
v -0.000000 0.029971 -0.014376
v 0.005847 0.029395 -3.326888
v 0.005847 0.029395 -0.014376
v 0.011469 0.027689 -3.326888
v 0.011469 0.027689 -0.014376
v 0.016651 0.024920 -3.326888
v 0.016651 0.024920 -0.014376
v 0.021193 0.021193 -3.326888
v 0.021193 0.021193 -0.014376
v 0.024920 0.016651 -3.326888
v 0.024920 0.016651 -0.014376
v 0.027689 0.011469 -3.326888
v 0.027689 0.011469 -0.014376
v 0.029395 0.005847 -3.326888
v 0.029395 0.005847 -0.014376
v 0.029971 -0.000000 -3.326888
v 0.029971 -0.000000 -0.014376
v 0.029395 -0.005847 -3.326888
v 0.029395 -0.005847 -0.014376
v 0.027689 -0.011469 -3.326888
v 0.027689 -0.011469 -0.014376
v 0.024920 -0.016651 -3.326888
v 0.024920 -0.016651 -0.014376
v 0.021193 -0.021193 -3.326888
v 0.021193 -0.021193 -0.014376
v 0.016651 -0.024920 -3.326888
v 0.016651 -0.024920 -0.014376
v 0.011469 -0.027689 -3.326888
v 0.011469 -0.027689 -0.014376
v 0.005847 -0.029395 -3.326888
v 0.005847 -0.029395 -0.014376
v -0.000000 -0.029971 -3.326888
v -0.000000 -0.029971 -0.014376
v -0.005847 -0.029395 -3.326888
v -0.005847 -0.029395 -0.014376
v -0.011469 -0.027689 -3.326888
v -0.011469 -0.027689 -0.014376
v -0.016651 -0.024920 -3.326888
v -0.016651 -0.024920 -0.014376
v -0.021193 -0.021193 -3.326888
v -0.021193 -0.021193 -0.014376
v -0.024920 -0.016651 -3.326888
v -0.024920 -0.016651 -0.014376
v -0.027689 -0.011469 -3.326888
v -0.027689 -0.011469 -0.014376
v -0.029395 -0.005847 -3.326888
v -0.029395 -0.005847 -0.014376
vt 1.000000 1.000000
vt 0.968750 0.500000
vt 1.000000 0.500000
vt 0.968750 1.000000
vt 0.937500 0.500000
vt 0.937500 1.000000
vt 0.906250 0.500000
vt 0.906250 1.000000
vt 0.875000 0.500000
vt 0.875000 1.000000
vt 0.843750 0.500000
vt 0.843750 1.000000
vt 0.812500 0.500000
vt 0.812500 1.000000
vt 0.781250 0.500000
vt 0.781250 1.000000
vt 0.750000 0.500000
vt 0.750000 1.000000
vt 0.718750 0.500000
vt 0.718750 1.000000
vt 0.687500 0.500000
vt 0.687500 1.000000
vt 0.656250 0.500000
vt 0.656250 1.000000
vt 0.625000 0.500000
vt 0.625000 1.000000
vt 0.593750 0.500000
vt 0.593750 1.000000
vt 0.562500 0.500000
vt 0.562500 1.000000
vt 0.531250 0.500000
vt 0.531250 1.000000
vt 0.500000 0.500000
vt 0.500000 1.000000
vt 0.468750 0.500000
vt 0.468750 1.000000
vt 0.437500 0.500000
vt 0.437500 1.000000
vt 0.406250 0.500000
vt 0.406250 1.000000
vt 0.375000 0.500000
vt 0.375000 1.000000
vt 0.343750 0.500000
vt 0.343750 1.000000
vt 0.312500 0.500000
vt 0.312500 1.000000
vt 0.281250 0.500000
vt 0.281250 1.000000
vt 0.250000 0.500000
vt 0.250000 1.000000
vt 0.218750 0.500000
vt 0.218750 1.000000
vt 0.187500 0.500000
vt 0.187500 1.000000
vt 0.156250 0.500000
vt 0.156250 1.000000
vt 0.125000 0.500000
vt 0.125000 1.000000
vt 0.093750 0.500000
vt 0.093750 1.000000
vt 0.062500 0.500000
vt 0.028269 0.341844
vt 0.158156 0.028269
vt 0.471731 0.158156
vt 0.062500 1.000000
vt 0.031250 0.500000
vt 0.031250 1.000000
vt 0.000000 0.500000
vt 0.985388 0.296822
vt 0.796822 0.014612
vt 0.514611 0.203179
vt 0.341844 0.471731
vt 0.296822 0.485388
vt 0.250000 0.490000
vt 0.203179 0.485389
vt 0.158156 0.471731
vt 0.116663 0.449553
vt 0.080295 0.419706
vt 0.050447 0.383337
vt 0.014612 0.296822
vt 0.010000 0.250000
vt 0.014611 0.203179
vt 0.028269 0.158156
vt 0.050447 0.116663
vt 0.080294 0.080294
vt 0.116663 0.050447
vt 0.203178 0.014612
vt 0.250000 0.010000
vt 0.296822 0.014612
vt 0.341844 0.028269
vt 0.383337 0.050447
vt 0.419706 0.080294
vt 0.449553 0.116663
vt 0.485388 0.203178
vt 0.490000 0.250000
vt 0.485388 0.296822
vt 0.471731 0.341844
vt 0.449553 0.383337
vt 0.419706 0.419706
vt 0.383337 0.449553
vt 0.000000 1.000000
vt 0.703179 0.485389
vt 0.750000 0.490000
vt 0.796822 0.485388
vt 0.841844 0.471731
vt 0.883337 0.449553
vt 0.919706 0.419706
vt 0.949553 0.383337
vt 0.971731 0.341844
vt 0.990000 0.250000
vt 0.985388 0.203178
vt 0.971731 0.158156
vt 0.949553 0.116663
vt 0.919706 0.080294
vt 0.883337 0.050447
vt 0.841844 0.028269
vt 0.750000 0.010000
vt 0.703178 0.014612
vt 0.658156 0.028269
vt 0.616663 0.050447
vt 0.580294 0.080294
vt 0.550447 0.116663
vt 0.528269 0.158156
vt 0.510000 0.250000
vt 0.514612 0.296822
vt 0.528269 0.341844
vt 0.550447 0.383337
vt 0.580295 0.419706
vt 0.616663 0.449553
vt 0.658156 0.471731
vn -0.9952 0.0980 0.0000
vn -0.9569 0.2903 0.0000
vn -0.8819 0.4714 0.0000
vn -0.7730 0.6344 0.0000
vn -0.6344 0.7730 0.0000
vn -0.4714 0.8819 0.0000
vn -0.2903 0.9569 0.0000
vn -0.0980 0.9952 0.0000
vn 0.0980 0.9952 0.0000
vn 0.2903 0.9569 0.0000
vn 0.4714 0.8819 0.0000
vn 0.6344 0.7730 0.0000
vn 0.7730 0.6344 0.0000
vn 0.8819 0.4714 0.0000
vn 0.9569 0.2903 0.0000
vn 0.9952 0.0980 0.0000
vn 0.9952 -0.0980 0.0000
vn 0.9569 -0.2903 0.0000
vn 0.8819 -0.4714 0.0000
vn 0.7730 -0.6344 0.0000
vn 0.6344 -0.7730 0.0000
vn 0.4714 -0.8819 0.0000
vn 0.2903 -0.9569 0.0000
vn 0.0980 -0.9952 0.0000
vn -0.0980 -0.9952 0.0000
vn -0.2903 -0.9569 0.0000
vn -0.4714 -0.8819 0.0000
vn -0.6344 -0.7730 0.0000
vn -0.7730 -0.6344 0.0000
vn -0.8819 -0.4714 0.0000
vn 0.0000 0.0000 1.0000
vn -0.9569 -0.2903 0.0000
vn -0.9952 -0.0980 0.0000
vn 0.0000 0.0000 -1.0000
vn -0.0003 0.0000 -1.0000
vn 0.0004 0.0000 -1.0000
vn 0.0006 0.0000 -1.0000
vn 0.0001 0.0000 -1.0000
vn -0.0001 0.0000 -1.0000
usemtl None
s off
f 66/97/38 67/98/38 65/99/38
f 68/100/39 69/101/39 67/98/39
f 70/102/40 71/103/40 69/101/40
f 72/104/41 73/105/41 71/103/41
f 74/106/42 75/107/42 73/105/42
f 76/108/43 77/109/43 75/107/43
f 78/110/44 79/111/44 77/109/44
f 80/112/45 81/113/45 79/111/45
f 82/114/46 83/115/46 81/113/46
f 84/116/47 85/117/47 83/115/47
f 86/118/48 87/119/48 85/117/48
f 88/120/49 89/121/49 87/119/49
f 90/122/50 91/123/50 89/121/50
f 92/124/51 93/125/51 91/123/51
f 94/126/52 95/127/52 93/125/52
f 96/128/53 97/129/53 95/127/53
f 98/130/54 99/131/54 97/129/54
f 100/132/55 101/133/55 99/131/55
f 102/134/56 103/135/56 101/133/56
f 104/136/57 105/137/57 103/135/57
f 106/138/58 107/139/58 105/137/58
f 108/140/59 109/141/59 107/139/59
f 110/142/60 111/143/60 109/141/60
f 112/144/61 113/145/61 111/143/61
f 114/146/62 115/147/62 113/145/62
f 116/148/63 117/149/63 115/147/63
f 118/150/64 119/151/64 117/149/64
f 120/152/65 121/153/65 119/151/65
f 122/154/66 123/155/66 121/153/66
f 124/156/67 125/157/67 123/155/67
f 118/158/68 102/159/68 86/160/68
f 126/161/69 127/162/69 125/157/69
f 128/163/70 65/164/70 127/162/70
f 79/165/71 95/166/71 111/167/71
f 66/97/38 68/100/38 67/98/38
f 68/100/39 70/102/39 69/101/39
f 70/102/40 72/104/40 71/103/40
f 72/104/41 74/106/41 73/105/41
f 74/106/42 76/108/42 75/107/42
f 76/108/43 78/110/43 77/109/43
f 78/110/44 80/112/44 79/111/44
f 80/112/45 82/114/45 81/113/45
f 82/114/46 84/116/46 83/115/46
f 84/116/47 86/118/47 85/117/47
f 86/118/48 88/120/48 87/119/48
f 88/120/49 90/122/49 89/121/49
f 90/122/50 92/124/50 91/123/50
f 92/124/51 94/126/51 93/125/51
f 94/126/52 96/128/52 95/127/52
f 96/128/53 98/130/53 97/129/53
f 98/130/54 100/132/54 99/131/54
f 100/132/55 102/134/55 101/133/55
f 102/134/56 104/136/56 103/135/56
f 104/136/57 106/138/57 105/137/57
f 106/138/58 108/140/58 107/139/58
f 108/140/59 110/142/59 109/141/59
f 110/142/60 112/144/60 111/143/60
f 112/144/61 114/146/61 113/145/61
f 114/146/62 116/148/62 115/147/62
f 116/148/63 118/150/63 117/149/63
f 118/150/64 120/152/64 119/151/64
f 120/152/65 122/154/65 121/153/65
f 122/154/66 124/156/66 123/155/66
f 124/156/67 126/161/67 125/157/67
f 70/168/68 68/169/68 66/170/68
f 66/170/68 128/171/68 70/168/68
f 128/171/68 126/172/68 70/168/68
f 126/172/68 124/173/68 122/174/68
f 122/174/68 120/175/68 118/158/68
f 118/158/68 116/176/68 114/177/68
f 114/177/68 112/178/68 118/158/68
f 112/178/68 110/179/68 118/158/68
f 110/179/68 108/180/68 106/181/68
f 106/181/68 104/182/68 102/159/68
f 102/159/68 100/183/68 98/184/68
f 98/184/68 96/185/68 94/186/68
f 94/186/68 92/187/68 90/188/68
f 90/188/68 88/189/68 86/160/68
f 86/160/68 84/190/68 82/191/68
f 82/191/68 80/192/68 86/160/68
f 80/192/68 78/193/68 86/160/68
f 78/193/68 76/194/68 74/195/68
f 74/195/68 72/196/68 70/168/68
f 126/172/68 122/174/68 70/168/68
f 122/174/68 118/158/68 70/168/68
f 110/179/68 106/181/68 102/159/68
f 102/159/68 98/184/68 86/160/68
f 98/184/68 94/186/68 86/160/68
f 94/186/68 90/188/68 86/160/68
f 78/193/68 74/195/68 86/160/68
f 74/195/68 70/168/68 86/160/68
f 118/158/68 110/179/68 102/159/68
f 70/168/68 118/158/68 86/160/68
f 126/161/69 128/163/69 127/162/69
f 128/163/70 66/197/70 65/164/70
f 127/198/71 65/199/71 67/200/71
f 67/200/71 69/201/71 71/202/71
f 71/202/72 73/203/72 75/204/72
f 75/204/73 77/205/73 71/202/73
f 77/205/71 79/165/71 71/202/71
f 79/165/71 81/206/71 83/207/71
f 83/207/71 85/208/71 79/165/71
f 85/208/71 87/209/71 79/165/71
f 87/209/71 89/210/71 95/166/71
f 89/210/71 91/211/71 95/166/71
f 91/211/71 93/212/71 95/166/71
f 95/166/71 97/213/71 99/214/71
f 99/214/74 101/215/74 103/216/74
f 103/216/75 105/217/75 111/167/75
f 105/217/75 107/218/75 111/167/75
f 107/218/71 109/219/71 111/167/71
f 111/167/71 113/220/71 115/221/71
f 115/221/71 117/222/71 119/223/71
f 119/223/71 121/224/71 123/225/71
f 123/225/74 125/226/74 127/198/74
f 127/198/76 67/200/76 71/202/76
f 95/166/75 99/214/75 111/167/75
f 99/214/71 103/216/71 111/167/71
f 111/167/71 115/221/71 127/198/71
f 115/221/71 119/223/71 127/198/71
f 119/223/76 123/225/76 127/198/76
f 127/198/71 71/202/71 79/165/71
f 79/165/71 87/209/71 95/166/71
f 127/198/71 79/165/71 111/167/71
